<svg width="72" height="72" viewBox="0 0 72 72" fill="none" xmlns="http://www.w3.org/2000/svg">
<g clip-path="url(#clip0_2774_5138)">
<path d="M63 2.25H6.75C5.85521 2.25104 4.99738 2.60696 4.36467 3.23967C3.73196 3.87238 3.37604 4.73021 3.375 5.625V66.375C3.37604 67.2698 3.73196 68.1276 4.36467 68.7603C4.99738 69.393 5.85521 69.749 6.75 69.75H63C63.2984 69.75 63.5845 69.6315 63.7955 69.4205C64.0065 69.2095 64.125 68.9234 64.125 68.625V68.1953L68.0032 66.2562C68.19 66.1627 68.3472 66.0191 68.457 65.8414C68.5668 65.6637 68.625 65.4589 68.625 65.25V54C68.625 53.7911 68.5668 53.5863 68.457 53.4086C68.3472 53.2309 68.19 53.0873 68.0032 52.9938L65.5155 51.75L68.0032 50.5062C68.19 50.4127 68.3472 50.2691 68.457 50.0914C68.5668 49.9137 68.625 49.7089 68.625 49.5V38.25C68.625 38.0411 68.5668 37.8363 68.457 37.6586C68.3472 37.4809 68.19 37.3373 68.0032 37.2438L65.5155 36L68.0032 34.7562C68.19 34.6627 68.3472 34.5191 68.457 34.3414C68.5668 34.1637 68.625 33.9589 68.625 33.75V22.5C68.625 22.2911 68.5668 22.0863 68.457 21.9086C68.3472 21.7309 68.19 21.5873 68.0032 21.4938L65.5155 20.25L68.0032 19.0062C68.19 18.9127 68.3472 18.7691 68.457 18.5914C68.5668 18.4137 68.625 18.2089 68.625 18V6.75C68.625 6.54109 68.5668 6.33631 68.457 6.15859C68.3472 5.98088 68.19 5.83726 68.0032 5.74383L64.125 3.80475V3.375C64.125 3.07663 64.0065 2.79048 63.7955 2.5795C63.5845 2.36853 63.2984 2.25 63 2.25ZM5.625 66.375V5.625C5.62533 5.32673 5.74397 5.04078 5.95487 4.82987C6.16578 4.61897 6.45173 4.50033 6.75 4.5H10.125V67.5H6.75C6.45173 67.4997 6.16578 67.381 5.95487 67.1701C5.74397 66.9592 5.62533 66.6733 5.625 66.375ZM12.375 67.5V4.5H61.875V67.5H12.375ZM66.375 64.5547L64.125 65.6797V53.5703L66.375 54.6953V64.5547ZM66.375 48.8047L64.125 49.9297V37.8203L66.375 38.9453V48.8047ZM66.375 33.0548L64.125 34.1798V22.0702L66.375 23.1952V33.0548ZM66.375 7.44525V17.3048L64.125 18.4298V6.32025L66.375 7.44525Z" fill="#FC8D3B"/>
<path d="M47.25 21.375H27C26.7016 21.375 26.4155 21.4935 26.2045 21.7045C25.9935 21.9155 25.875 22.2016 25.875 22.5V49.5C25.875 49.7984 25.9935 50.0845 26.2045 50.2955C26.4155 50.5065 26.7016 50.625 27 50.625H47.25C47.5484 50.625 47.8345 50.5065 48.0455 50.2955C48.2565 50.0845 48.375 49.7984 48.375 49.5V22.5C48.375 22.2016 48.2565 21.9155 48.0455 21.7045C47.8345 21.4935 47.5484 21.375 47.25 21.375ZM37.125 36C35.9319 35.9987 34.7881 35.5241 33.9445 34.6805C33.1009 33.8369 32.6263 32.6931 32.625 31.5V30.375H34.875C35.7477 30.375 36.5579 29.9592 37.125 29.5701C37.6921 29.9592 38.5023 30.375 39.375 30.375H41.625V31.5C41.6237 32.6931 41.1491 33.8369 40.3055 34.6805C39.4619 35.5241 38.3181 35.9987 37.125 36ZM39.375 28.125C38.9343 28.125 38.2447 27.6484 37.9205 27.3295C37.7095 27.1201 37.4245 27.0023 37.1272 27.0017C36.8299 27.0012 36.5444 27.1178 36.3326 27.3264C36.0053 27.6484 35.3157 28.125 34.875 28.125H32.7675C33.0166 27.1587 33.5798 26.3025 34.3686 25.6913C35.1574 25.08 36.1271 24.7483 37.125 24.7483C38.1229 24.7483 39.0926 25.08 39.8814 25.6913C40.6702 26.3025 41.2334 27.1587 41.4825 28.125H39.375ZM28.125 23.625H33.3994C32.47 24.24 31.7074 25.0755 31.1797 26.0571C30.6519 27.0386 30.3755 28.1356 30.375 29.25V31.5C30.3742 33.231 31.0411 34.8957 32.2367 36.1474C30.6725 36.4549 29.2386 37.2304 28.125 38.3712V23.625ZM46.125 48.375H28.125V43.875C28.1267 42.3837 28.7198 40.9539 29.7744 39.8994C30.8289 38.8448 32.2587 38.2517 33.75 38.25H40.5C41.9913 38.2517 43.4211 38.8448 44.4756 39.8994C45.5302 40.9539 46.1233 42.3837 46.125 43.875V48.375ZM42.0133 36.1474C43.2089 34.8957 43.8758 33.231 43.875 31.5V29.25C43.8745 28.1356 43.5981 27.0386 43.0703 26.0571C42.5426 25.0755 41.78 24.24 40.8506 23.625H46.125V38.3712C45.0114 37.2304 43.5775 36.4549 42.0133 36.1474Z" fill="#FFCCA6"/>
<path d="M41.625 52.875H28.125C27.8266 52.875 27.5405 52.9935 27.3295 53.2045C27.1185 53.4155 27 53.7016 27 54C27 54.2984 27.1185 54.5845 27.3295 54.7955C27.5405 55.0065 27.8266 55.125 28.125 55.125H41.625C41.9234 55.125 42.2095 55.0065 42.4205 54.7955C42.6315 54.5845 42.75 54.2984 42.75 54C42.75 53.7016 42.6315 53.4155 42.4205 53.2045C42.2095 52.9935 41.9234 52.875 41.625 52.875Z" fill="#FFCCA6"/>
<path d="M47.25 12.375H27C26.7016 12.375 26.4155 12.4935 26.2045 12.7045C25.9935 12.9155 25.875 13.2016 25.875 13.5V18C25.875 18.2984 25.9935 18.5845 26.2045 18.7955C26.4155 19.0065 26.7016 19.125 27 19.125H47.25C47.5484 19.125 47.8345 19.0065 48.0455 18.7955C48.2565 18.5845 48.375 18.2984 48.375 18V13.5C48.375 13.2016 48.2565 12.9155 48.0455 12.7045C47.8345 12.4935 47.5484 12.375 47.25 12.375ZM46.125 16.875H28.125V14.625H46.125V16.875Z" fill="#FFCCA6"/>
<path d="M46.125 55.125C46.7463 55.125 47.25 54.6213 47.25 54C47.25 53.3787 46.7463 52.875 46.125 52.875C45.5037 52.875 45 53.3787 45 54C45 54.6213 45.5037 55.125 46.125 55.125Z" fill="#FFCCA6"/>
</g>
<defs>
<clipPath id="clip0_2774_5138">
<rect width="72" height="72" fill="white"/>
</clipPath>
</defs>
</svg>
